<svg xmlns="http://www.w3.org/2000/svg" viewBox="0 0 64 64">
<rect width="64" height="64" rx="10" fill="#161616"/>
<path fill="#ededeb" d="M32.8 56Q29.55 56 26.37 55.1Q23.19 54.2 20.54 52.26Q17.88 50.33 16.14 47.23Q14.4 44.13 14.03 39.79H21.98Q22.53 43.21 24.23 45.12Q25.93 47.02 28.28 47.81Q30.63 48.6 32.97 48.6Q35.53 48.6 37.54 47.79Q39.55 46.98 40.73 45.49Q41.9 44 41.9 42.02Q41.9 39.97 40.76 38.35Q39.61 36.74 35.9 36.06L28.05 34.6Q22.33 33.52 19.1 30.03Q15.88 26.54 15.88 21.76Q15.88 17.41 18.07 14.35Q20.27 11.29 23.97 9.64Q27.68 8 32.14 8Q36.81 8 40.51 9.59Q44.22 11.17 46.55 14.46Q48.88 17.76 49.34 22.92H41.26Q40.81 19.92 39.47 18.3Q38.12 16.67 36.24 16Q34.36 15.34 32.36 15.34Q30.48 15.34 28.5 15.94Q26.52 16.53 25.2 17.89Q23.88 19.24 23.88 21.58Q23.88 23.61 25.36 25.14Q26.84 26.67 30.16 27.27L37.42 28.61Q43.28 29.67 46.62 32.77Q49.97 35.87 49.97 41.76Q49.97 45.23 48.49 47.87Q47.02 50.52 44.54 52.32Q42.07 54.12 39.03 55.06Q35.99 56 32.8 56Z"/>
</svg>
